<svg version="1.1" id="Layer_1" xmlns="http://www.w3.org/2000/svg" xmlns:xlink="http://www.w3.org/1999/xlink" x="0px" y="0px"
	 width="100%" viewBox="0 0 496 496" enable-background="new 0 0 496 496" xml:space="preserve">
<path fill="#000000" opacity="1.000000" stroke="none" 
	d="
M284.303040,354.263824 
	C297.774170,348.894806 308.727814,340.370880 319.972321,331.897247 
	C297.536499,312.518768 304.145020,273.567932 323.044586,256.814545 
	C323.209076,255.364777 322.402039,253.695068 321.555115,253.306961 
	C315.074036,250.336990 314.621307,242.697983 309.738770,238.255203 
	C307.604462,236.313156 306.059113,232.707993 303.408813,230.454132 
	C302.736359,229.882263 302.612946,228.952057 303.098358,228.167862 
	C303.727386,227.151627 304.650940,227.373077 305.716705,227.514191 
	C308.865723,227.931107 311.441589,229.728256 314.058044,231.149200 
	C319.800629,234.267838 327.602448,233.568176 331.294220,240.897461 
	C332.020050,235.324158 333.231567,230.407486 334.518494,225.507339 
	C335.341827,222.372299 333.105377,221.270203 330.904388,220.464462 
	C316.626129,215.237335 306.597809,205.169968 298.526489,192.677658 
	C294.255768,186.067703 292.260956,178.734207 290.898285,171.181641 
	C290.122040,166.879547 292.564148,163.548889 296.907623,162.967651 
	C301.113403,162.404831 305.088654,160.089508 309.606171,161.275635 
	C306.181580,158.465942 303.491486,156.337952 297.970093,157.260696 
	C289.946930,158.601532 281.207886,158.073868 275.409882,150.016861 
	C273.113220,146.825424 269.218933,145.714005 265.553375,144.635986 
	C264.274445,144.259857 262.830170,144.341019 262.546875,142.596024 
	C262.238281,140.695145 264.208344,140.800995 264.968658,139.848465 
	C266.433563,138.013245 268.865448,138.018692 270.491089,138.177597 
	C279.386719,139.047104 289.246185,134.598907 296.954407,142.136078 
	C299.979218,145.093750 303.876831,147.165848 305.346252,151.969254 
	C306.305054,155.103409 310.708130,155.788818 314.082703,157.003555 
	C312.074829,153.231720 308.521271,150.671738 306.845337,146.632553 
	C305.296387,142.899506 305.704071,132.200531 308.710602,128.771255 
	C310.034485,127.261177 311.117981,127.851471 312.467072,129.028503 
	C320.211029,135.784760 321.296021,144.481949 319.843781,153.903488 
	C319.668091,155.043350 318.810364,156.053192 320.405792,156.823425 
	C322.432739,156.344421 321.956329,154.517349 322.231445,153.196518 
	C323.799591,145.667282 327.314850,139.154770 332.331299,133.393417 
	C335.331146,129.948090 339.176239,129.363892 342.838287,132.290176 
	C353.100586,140.490677 359.189941,150.960617 359.382538,164.366150 
	C359.419922,166.968246 360.210052,169.036743 361.521118,171.305695 
	C370.825378,187.408295 377.124512,204.109177 370.046265,222.933533 
	C369.312439,224.884979 369.799927,226.459290 370.643494,228.154327 
	C372.807312,232.502014 374.353088,237.106186 375.224426,241.851974 
	C377.246521,252.865631 372.649048,262.708344 362.004852,268.461609 
	C356.976318,271.179565 356.024719,274.920105 356.002472,280.050385 
	C360.800751,279.790619 365.345642,278.925690 369.973419,279.459290 
	C374.142426,279.940033 375.458435,282.129517 374.632812,285.937073 
	C370.737335,303.901398 362.442169,318.981812 346.175873,328.685913 
	C342.002533,331.175629 337.295410,333.442657 332.573029,333.134796 
	C325.355255,332.664185 320.702484,336.169800 315.933258,341.211823 
	C319.916138,343.202362 324.201996,343.118591 328.233124,343.933960 
	C330.182068,344.328125 332.778076,344.044830 333.094330,346.398682 
	C333.423798,348.850983 331.320129,349.962311 328.960419,350.457001 
	C325.260956,351.232544 323.298676,354.881104 319.663605,356.074310 
	C315.189087,357.543030 310.640045,357.134644 306.585938,356.018372 
	C300.985809,354.476379 295.867889,354.504761 290.594910,356.525452 
	C284.379395,358.907349 278.176483,361.322296 271.949432,363.673523 
	C270.719788,364.137848 269.420563,364.565430 268.126068,364.669464 
	C266.794250,364.776550 265.338348,364.468658 264.973419,362.851440 
	C264.556732,361.004944 265.640594,360.050323 267.321930,359.697052 
	C273.043640,358.494904 278.563782,356.664703 284.303040,354.263824 
M338.289642,246.318253 
	C341.443390,253.928223 343.649902,262.298126 353.596191,265.256500 
	C355.448486,251.787216 352.256866,238.831253 352.558105,225.755676 
	C358.438324,238.432022 357.119934,252.141861 358.212280,265.534180 
	C366.146973,263.272217 373.585449,252.153015 371.762299,243.891266 
	C368.699280,230.010696 362.264740,218.063614 352.614868,207.818054 
	C349.612366,204.630219 347.394165,205.214142 345.241699,209.205978 
	C341.273163,216.565750 338.205414,224.332581 336.726532,232.542023 
	C335.955444,236.822510 335.139191,241.490784 338.289642,246.318253 
M323.780884,188.732941 
	C316.963287,184.037933 309.035645,181.085739 302.738464,175.514740 
	C315.259430,177.129730 324.330322,185.989548 335.361877,191.506134 
	C336.217743,188.131485 336.568390,185.443619 337.592834,183.043335 
	C338.845398,180.108551 337.706604,178.403641 335.577362,176.657028 
	C326.736633,169.405014 316.400635,166.032455 305.200409,165.551224 
	C296.299103,165.168762 293.644989,168.963913 296.149353,177.347748 
	C296.671631,179.096191 297.339050,180.811279 298.065582,182.487122 
	C304.912933,198.280807 315.982697,209.913605 331.960449,216.631714 
	C333.699341,217.362854 335.898346,218.795181 337.308197,216.400406 
	C338.880402,213.729813 339.997772,211.038528 339.206238,207.482666 
	C337.266235,198.767578 331.636932,193.371475 323.780884,188.732941 
M338.625031,318.098785 
	C335.434204,321.417389 332.243378,324.735962 328.838928,328.276764 
	C332.265869,330.414886 334.982391,328.903381 337.470245,327.973450 
	C356.330963,320.923645 365.220825,305.626282 370.465179,287.461121 
	C371.352386,284.388000 369.503082,283.047577 366.620087,283.306641 
	C347.393982,285.034302 329.230743,292.208435 324.644409,314.707916 
	C323.963867,318.046509 321.707275,321.988464 325.618500,325.841827 
	C334.862366,316.629364 343.934540,307.588013 353.006744,298.546631 
	C353.378418,298.940552 353.750092,299.334503 354.121765,299.728424 
	C349.913788,306.332336 343.763580,311.343262 338.625031,318.098785 
M312.416168,314.043915 
	C314.099457,317.605225 314.778442,321.868774 319.701935,324.380463 
	C319.080627,315.700104 323.185669,308.650177 323.688049,300.842804 
	C324.180969,293.182556 321.594421,285.422821 323.986145,276.466370 
	C327.092224,283.459900 325.497650,289.902496 328.068695,296.313019 
	C330.807404,293.653931 333.299683,291.314911 335.689453,288.875397 
	C336.693512,287.850433 336.806549,286.434814 336.391022,285.115906 
	C334.297211,278.469696 332.536316,271.687408 328.027100,266.078461 
	C324.292542,261.433105 322.963318,261.312500 319.665527,266.448029 
	C310.355164,280.946472 306.699524,296.418396 312.416168,314.043915 
M353.640564,194.588425 
	C353.796936,192.466766 353.187805,190.204010 354.590881,187.551010 
	C356.507172,191.608932 357.419922,195.068344 357.433472,198.764999 
	C357.461121,206.313339 360.334900,212.487900 366.065674,217.234726 
	C368.144196,216.614746 368.171082,215.033081 368.612640,213.612885 
	C370.046295,209.001755 369.729523,204.412415 368.605560,199.830185 
	C366.098236,189.607971 363.247223,179.542526 355.840485,171.511337 
	C352.986206,168.416367 350.521332,168.617722 348.151031,172.036530 
	C345.101654,176.434814 341.863220,180.928024 341.197540,186.260284 
	C340.473938,192.056656 338.826324,198.220169 342.719330,204.236420 
	C346.065674,200.881241 349.798431,201.913330 353.215698,202.134293 
	C354.504852,199.763153 353.573395,197.589310 353.640564,194.588425 
M332.671906,169.733398 
	C335.540558,170.815979 337.294312,173.951187 341.374176,174.468582 
	C342.266357,164.504242 339.241852,155.075287 338.895844,145.202774 
	C341.039948,146.028778 341.123138,147.243301 341.530212,148.329193 
	C343.110870,152.545547 343.701782,156.967484 344.510986,161.357071 
	C344.891541,163.421310 345.513733,166.143494 348.548828,164.977570 
	C351.279358,163.928650 356.179260,164.731888 355.294861,159.535080 
	C353.666504,149.967026 348.886536,142.190369 341.010193,136.390167 
	C338.769379,134.740036 336.745636,134.803619 334.850037,136.905533 
	C329.825409,142.477081 326.575531,148.874344 325.625885,156.388031 
	C324.895996,162.163116 325.083038,167.424118 332.671906,169.733398 
M341.702179,266.659058 
	C339.280060,263.609802 335.723572,264.017242 331.254883,262.911774 
	C335.906952,270.595612 338.503693,277.948212 341.196472,285.496857 
	C343.059021,284.911743 344.487793,284.547455 345.853027,284.019012 
	C351.139099,281.973022 351.557129,280.876129 348.497559,276.109375 
	C346.535187,273.052063 344.290924,270.175720 341.702179,266.659058 
z"/>
<path fill="#000000" opacity="1.000000" stroke="none" 
	d="
M198.952194,216.750717 
	C202.595978,216.813828 205.727829,216.768005 208.880600,217.319962 
	C221.204376,219.477478 228.904922,226.506363 231.456970,238.715927 
	C233.185287,246.984634 232.880966,255.182068 229.543289,263.158295 
	C225.604691,272.570648 218.134140,277.718781 208.535553,278.587891 
	C197.974945,279.544128 187.270691,278.948395 176.629196,278.930206 
	C175.401093,278.928101 174.174072,278.295715 172.204697,277.749969 
	C178.389359,273.442352 178.872452,267.640533 178.736435,261.457733 
	C178.546249,252.813675 178.543701,244.159103 178.735229,235.515091 
	C178.881866,228.897232 178.780396,222.504379 172.497742,218.027283 
	C172.660309,217.601746 172.822876,217.176224 172.985443,216.750687 
	C181.477173,216.750687 189.968918,216.750687 198.952194,216.750717 
M188.324493,231.934464 
	C188.325317,242.896271 188.351761,253.858185 188.309265,264.819824 
	C188.298416,267.619873 188.817871,269.896271 192.249390,269.861267 
	C197.393906,269.808807 202.594040,270.104614 207.667221,269.450745 
	C214.064682,268.626190 218.490707,264.716888 220.903244,258.675507 
	C228.348282,240.031967 218.551590,225.394608 198.620575,225.371948 
	C197.291885,225.370453 195.960266,225.433502 194.635040,225.366714 
	C190.624344,225.164551 188.208908,226.682617 188.324493,231.934464 
z"/>
<path fill="#000000" opacity="1.000000" stroke="none" 
	d="
M263.545532,279.117188 
	C250.154984,276.609985 242.402573,268.706116 239.983475,255.987274 
	C237.483627,242.843903 239.046280,230.211716 250.750137,221.874741 
	C262.441925,213.546356 275.439880,214.335907 288.299255,219.775497 
	C290.950867,220.897141 292.458191,222.994522 292.939758,225.822266 
	C293.628906,229.869095 294.303864,233.918304 294.481750,238.434555 
	C289.584076,231.542740 284.556427,225.394135 275.206543,225.065674 
	C266.478912,224.759064 258.314331,225.677399 253.022919,233.463348 
	C245.976166,243.832245 248.514084,260.272736 257.753387,266.917145 
	C263.909393,271.344208 270.930115,271.340302 277.898865,270.279755 
	C285.349182,269.145935 290.120422,264.088165 293.512238,256.878754 
	C296.362305,268.358948 291.046082,276.502533 279.912811,278.809723 
	C274.647888,279.900848 269.302063,279.400421 263.545532,279.117188 
z"/>
<path fill="#000000" opacity="1.000000" stroke="none" 
	d="
M109.596985,310.479553 
	C104.095787,305.668396 102.041611,299.229614 99.732544,293.061462 
	C98.753563,290.446320 100.480988,287.920502 102.897835,286.296906 
	C107.062157,283.499359 111.596169,281.377747 116.208206,279.491150 
	C119.907654,277.977875 123.239235,279.030792 125.246368,282.552643 
	C127.631104,286.737061 129.697449,291.105286 131.840225,295.424377 
	C133.217590,298.200684 132.438309,300.949341 130.396713,302.765564 
	C125.487518,307.132874 119.473320,309.625854 113.225754,311.446747 
	C112.276443,311.723450 111.022453,310.954712 109.596985,310.479553 
M119.084183,303.080963 
	C114.180725,303.729889 110.333939,301.829956 107.024414,297.165558 
	C107.425331,301.838867 108.649155,305.324066 112.224190,306.512939 
	C115.319481,307.542206 118.126167,305.249603 120.762184,303.591675 
	C120.561470,303.392670 120.382210,303.161041 120.150711,303.008850 
	C120.039986,302.936035 119.830223,303.013885 119.084183,303.080963 
M119.582985,288.071350 
	C122.372482,289.812103 123.042419,293.495575 126.113190,295.130280 
	C124.999626,291.673798 123.423813,288.526062 121.603882,285.526398 
	C120.902023,284.369568 119.385635,283.694183 118.214920,284.775909 
	C116.949875,285.944824 118.526024,286.721405 119.582985,288.071350 
M115.653374,291.904541 
	C113.247673,292.709015 111.845840,294.412750 113.185394,296.710815 
	C114.220924,298.487274 116.531410,298.408997 117.885925,296.897827 
	C119.865234,294.689545 118.660316,293.031555 115.653374,291.904541 
M108.006493,292.593750 
	C108.044693,291.313904 109.344276,290.257935 108.686455,288.765839 
	C106.866058,288.951416 105.689713,290.119476 104.720062,291.417419 
	C103.968521,292.423431 103.936852,293.767242 104.983780,294.572601 
	C106.585533,295.804688 107.316505,294.569061 108.006493,292.593750 
z"/>
<path fill="#000000" opacity="1.000000" stroke="none" 
	d="
M133.731720,339.559814 
	C133.218109,337.870789 133.775421,335.950867 132.005890,335.327454 
	C127.306961,333.672119 126.772362,330.271698 128.115341,325.889282 
	C124.113922,323.855164 119.293205,322.082947 120.341812,316.602844 
	C120.869293,313.846161 131.561844,309.851196 133.144760,311.089539 
	C136.669006,313.846619 136.449860,318.215607 132.367706,323.059723 
	C136.187607,323.402863 139.364441,324.471069 138.994888,329.105896 
	C138.853867,330.874420 140.030273,331.337402 141.316956,331.840820 
	C143.653214,332.754883 145.250046,334.356415 145.498016,336.947479 
	C145.672348,338.769165 146.815918,339.330139 148.348724,339.889984 
	C151.089798,340.891144 152.116898,343.073975 151.459549,345.881073 
	C150.793655,348.724579 148.943390,350.601624 146.040497,351.047028 
	C143.406281,351.451263 140.552002,350.955292 140.012650,348.009888 
	C139.288620,344.055878 135.272659,343.029724 133.731720,339.559814 
M131.689240,318.355286 
	C132.265701,317.123444 132.960999,315.124329 131.412582,314.964203 
	C128.157288,314.627594 125.636688,316.541077 123.624222,319.270081 
	C126.606056,322.862427 128.964035,320.994965 131.689240,318.355286 
M138.494324,340.684875 
	C139.750748,342.119110 140.881851,342.100311 141.990631,340.473511 
	C143.112839,338.826996 142.702194,337.326477 141.491058,336.059845 
	C140.351837,334.868408 139.053223,335.524139 137.955582,336.273560 
	C135.996063,337.611542 136.755493,338.975128 138.494324,340.684875 
M144.678970,344.137482 
	C143.911575,344.989655 142.920792,345.853577 144.093018,347.029877 
	C144.949478,347.889343 145.889603,347.447205 146.743927,346.886200 
	C147.618622,346.311737 148.295914,345.483276 147.974579,344.457123 
	C147.487274,342.900909 146.288513,343.293854 144.678970,344.137482 
z"/>
<path fill="#000000" opacity="1.000000" stroke="none" 
	d="
M184.070587,370.775452 
	C189.182007,368.329071 191.129608,371.003571 192.280182,375.331207 
	C193.511688,374.062744 194.711395,373.153320 196.527588,374.062500 
	C198.295685,374.947510 200.159302,375.683960 202.046295,376.278198 
	C204.195862,376.955048 207.153519,376.724396 207.124191,379.949280 
	C207.094681,383.190796 206.549622,386.459167 203.124344,388.534729 
	C200.632217,385.452820 205.093430,382.777405 203.056824,379.784485 
	C199.040695,379.782227 201.004547,385.643677 197.222015,385.969208 
	C194.746826,383.292908 198.933182,380.695007 197.178131,377.869720 
	C193.213593,377.852875 195.081482,383.700592 191.459503,383.943756 
	C189.263840,382.472748 191.202057,380.502625 190.623566,378.565399 
	C189.273712,378.195129 187.765289,377.781342 186.235733,377.361755 
	C185.736816,379.386047 188.526260,379.144470 187.821152,381.189819 
	C185.479614,382.463470 183.591553,381.575195 182.174026,379.367188 
	C180.100113,376.136749 180.966431,373.365814 184.070587,370.775452 
z"/>
<path fill="#000000" opacity="1.000000" stroke="none" 
	d="
M171.163879,365.891754 
	C169.844971,367.560089 168.526062,369.228455 166.992508,371.168304 
	C162.712723,366.449310 170.158478,364.573944 167.894043,360.927216 
	C164.032135,360.278595 164.168564,365.868347 160.730759,365.743195 
	C158.265259,364.176422 163.965271,360.314301 158.775909,359.560883 
	C157.272949,360.086823 159.103073,361.738525 157.531082,362.686310 
	C154.645737,362.590912 152.648895,361.128540 152.475327,357.690857 
	C152.300949,354.237366 153.806763,351.941895 157.334869,351.231995 
	C160.431625,350.608826 162.665802,351.784241 163.447784,354.812042 
	C163.911469,356.607483 164.617767,356.684326 166.335693,356.995850 
	C169.947601,357.650909 172.930954,359.572327 171.905563,364.733917 
	C171.564194,365.510071 171.370117,365.706909 171.163879,365.891754 
z"/>
<path fill="#000000" opacity="1.000000" stroke="none" 
	d="
M237.025970,392.983826 
	C236.051865,394.458832 234.915375,395.535248 232.934067,394.854126 
	C231.011658,394.193207 230.408234,392.637665 230.690109,390.922272 
	C231.248016,387.527161 228.226883,383.335693 233.061920,380.533752 
	C234.971222,382.644531 236.565567,385.316803 240.244339,384.011963 
	C243.223038,382.955475 245.898849,383.956970 247.233032,387.013977 
	C248.423920,389.742645 247.668610,392.367249 245.453918,394.188049 
	C242.720016,396.435760 239.951843,395.860931 237.200928,392.793640 
	C236.156982,390.387421 237.566620,387.931183 234.748367,386.032410 
	C232.630905,389.650879 233.890030,391.588196 237.025970,392.983826 
M240.794571,391.201019 
	C242.541290,392.996613 243.703873,392.080963 244.310883,390.241577 
	C244.760391,388.879395 244.212006,387.494324 242.614014,387.375244 
	C240.234039,387.197968 240.145218,388.850403 240.794571,391.201019 
z"/>
<path fill="#000000" opacity="1.000000" stroke="none" 
	d="
M224.260803,142.418976 
	C221.371201,148.810043 217.104111,145.347229 213.073318,144.633896 
	C212.852737,142.161987 214.118240,139.760742 212.114731,138.047134 
	C215.922943,134.044662 219.799500,133.655090 224.125381,136.252243 
	C224.756897,138.141129 224.395309,140.117920 224.260803,142.418976 
z"/>
<path fill="#000000" opacity="1.000000" stroke="none" 
	d="
M153.885895,241.055695 
	C149.635895,242.315781 146.622879,240.969620 146.282593,237.007706 
	C146.022293,233.977112 147.906677,231.384338 151.679428,231.207947 
	C154.128891,231.093399 155.372101,232.791931 156.270905,234.449554 
	C157.693314,237.072906 155.836166,239.058670 153.885895,241.055695 
z"/>
<path fill="#000000" opacity="1.000000" stroke="none" 
	d="
M193.579178,159.704895 
	C189.950378,161.740112 187.589844,161.152557 185.743561,157.536911 
	C183.475006,153.094223 186.667130,151.669617 189.545212,150.360275 
	C191.153244,149.628754 193.493698,150.077011 193.931595,152.167984 
	C194.273407,153.800217 194.527740,155.060989 195.717346,156.422684 
	C197.422394,158.374374 195.772079,159.252121 193.579178,159.704895 
z"/>
<path fill="#000000" opacity="1.000000" stroke="none" 
	d="
M184.769348,343.415100 
	C188.080841,339.024658 189.238907,339.050598 194.688095,343.278229 
	C194.171249,348.932983 194.171249,348.932983 188.407394,351.008118 
	C188.746979,347.735626 181.416077,348.875885 184.769348,343.415100 
z"/>
<path fill="#000000" opacity="1.000000" stroke="none" 
	d="
M176.695358,328.452850 
	C176.514435,330.238037 176.430145,331.680481 176.332245,333.355743 
	C172.655228,334.054962 169.537598,333.436951 166.648758,330.812073 
	C167.223328,328.679749 168.103424,326.564941 167.828568,324.037659 
	C171.970642,323.330475 175.456924,323.272247 176.695358,328.452850 
z"/>
<path fill="#000000" opacity="1.000000" stroke="none" 
	d="
M213.434387,391.294434 
	C210.084351,391.335419 208.533798,389.519928 207.918961,386.911713 
	C207.352402,384.508148 208.012894,382.323242 210.092102,380.766083 
	C212.014740,379.326233 214.119919,379.200531 216.059235,380.525604 
	C217.635651,381.602722 218.465103,383.262604 217.847672,385.261902 
	C216.933350,388.222534 214.643372,386.605865 212.866409,386.690796 
	C212.398117,386.713226 211.931488,386.770203 211.577835,386.801300 
	C210.179230,389.456085 217.292343,387.534332 213.434387,391.294434 
z"/>
<path fill="#000000" opacity="1.000000" stroke="none" 
	d="
M156.157593,298.865173 
	C159.292740,297.666718 161.593140,298.723663 162.745270,301.107880 
	C163.514679,302.700134 164.329865,305.320068 162.545639,306.632080 
	C159.552658,308.832977 156.179016,308.736664 152.764420,306.221191 
	C154.040451,303.910095 153.524155,300.914581 156.157593,298.865173 
z"/>
<path fill="#000000" opacity="1.000000" stroke="none" 
	d="
M227.499939,362.289795 
	C228.497101,360.361694 229.739090,359.066986 231.252441,358.095032 
	C234.956238,358.853851 238.335068,360.271942 237.730118,364.634338 
	C237.407394,366.961578 234.562439,367.920746 232.328278,368.115692 
	C228.589233,368.441956 227.630127,365.775818 227.499939,362.289795 
z"/>
<path fill="#000000" opacity="1.000000" stroke="none" 
	d="
M219.298767,392.169800 
	C217.317978,389.069611 219.096527,386.237427 219.328979,383.360504 
	C219.440933,381.974762 220.548798,381.487488 221.859802,381.619812 
	C223.926544,381.828369 226.703796,381.008392 227.648010,383.379700 
	C229.046555,386.891968 228.895660,390.523834 225.995728,394.130066 
	C223.161484,390.925537 226.159119,387.788025 224.786789,385.021545 
	C220.336777,385.646667 223.099915,391.232483 219.298767,392.169800 
z"/>
<path fill="#000000" opacity="1.000000" stroke="none" 
	d="
M148.824799,195.052155 
	C153.553619,191.680206 156.701889,191.892960 157.697479,195.466492 
	C158.208191,197.299591 158.659744,199.479324 156.476334,200.867340 
	C154.967468,201.826538 153.708893,203.071686 151.517807,202.043152 
	C148.410110,200.584366 148.219070,198.229095 148.824799,195.052155 
z"/>
<path fill="#000000" opacity="1.000000" stroke="none" 
	d="
M200.340057,158.252441 
	C197.980133,156.292892 198.861847,153.831207 198.209152,151.361298 
	C201.071274,150.844131 203.269562,146.920639 206.222488,150.229706 
	C207.640091,151.818298 208.769531,154.661011 207.479095,156.576675 
	C206.076447,158.658905 203.624496,160.385651 200.340057,158.252441 
z"/>
<path fill="#000000" opacity="1.000000" stroke="none" 
	d="
M150.326141,285.627014 
	C147.050476,285.808533 144.476105,284.646820 143.847168,281.726440 
	C143.524353,280.227478 142.854324,277.854645 145.385101,276.567108 
	C147.867447,275.304260 150.167358,275.497589 151.482285,277.616791 
	C153.047516,280.139343 153.679810,283.143219 150.326141,285.627014 
z"/>
<path fill="#000000" opacity="1.000000" stroke="none" 
	d="
M171.102600,366.328308 
	C171.370117,365.706909 171.564194,365.510071 171.878937,365.139954 
	C174.271545,362.956665 176.582153,361.041046 179.941528,361.685089 
	C182.589661,362.192749 184.618301,363.219391 183.893570,367.062622 
	C180.789780,365.114960 177.743530,362.379608 175.117874,367.089752 
	C172.504486,371.777863 175.602570,373.597198 180.110962,374.848267 
	C177.249725,377.112640 175.334045,376.655853 173.494659,375.308929 
	C170.498322,373.114777 170.436676,370.022400 171.102600,366.328308 
z"/>
<path fill="#000000" opacity="1.000000" stroke="none" 
	d="
M134.499634,254.863907 
	C135.255051,257.007233 135.741364,258.881836 136.267380,260.909424 
	C133.031723,262.219421 129.994965,264.675049 127.706398,260.342743 
	C126.609428,258.266144 125.760078,255.804291 128.028397,253.657532 
	C130.533905,251.286301 132.416000,252.617340 134.499634,254.863907 
z"/>
<path fill="#000000" opacity="1.000000" stroke="none" 
	d="
M134.703033,217.804596 
	C133.478455,216.294312 131.746048,215.249344 132.275726,213.417435 
	C132.978226,210.987869 134.187927,208.850204 137.275070,208.923416 
	C139.866302,208.984879 141.547287,210.624542 141.324310,212.848007 
	C141.093292,215.151718 140.923706,218.424072 137.001678,218.091675 
	C136.352921,218.036697 135.700302,218.027328 134.703033,217.804596 
z"/>
<path fill="#000000" opacity="1.000000" stroke="none" 
	d="
M204.464905,348.302246 
	C210.045105,344.400940 211.575378,345.231323 213.032654,352.824768 
	C211.029770,353.712494 209.718323,356.557434 206.681793,354.871399 
	C204.100082,353.437958 203.744324,351.173370 204.464905,348.302246 
z"/>
<path fill="#000000" opacity="1.000000" stroke="none" 
	d="
M141.873825,312.299927 
	C140.225555,309.455109 139.874344,306.794434 142.499710,304.995758 
	C144.613464,303.547577 146.519608,305.025482 148.091599,306.633057 
	C149.349670,307.919647 149.853394,309.172668 148.841873,310.995850 
	C147.097809,314.139374 144.673889,313.490051 141.873825,312.299927 
z"/>
<path fill="#000000" opacity="1.000000" stroke="none" 
	d="
M154.753662,176.309296 
	C159.191742,172.466919 161.967651,172.386688 162.994980,175.725235 
	C163.917007,178.721573 163.032806,181.280136 159.990036,181.874420 
	C156.306030,182.593933 154.609619,180.291153 154.753662,176.309296 
z"/>
<path fill="#000000" opacity="1.000000" stroke="none" 
	d="
M166.124619,170.489960 
	C168.886032,170.179031 171.171951,169.273392 173.848602,168.905655 
	C173.375000,172.565842 169.465561,171.981339 167.306015,173.299805 
	C166.018204,174.086075 164.512817,172.628723 166.124619,170.489960 
z"/>
<path fill="#000000" opacity="1.000000" stroke="none" 
	d="
M159.998444,186.160660 
	C161.079681,188.488129 162.688538,190.470657 162.140808,193.220901 
	C158.698059,193.312805 158.774796,190.351181 157.825958,188.628143 
	C157.089142,187.290146 157.933960,186.107544 159.998444,186.160660 
z"/>
</svg>